<?xml version="1.0" encoding="UTF-8"?> <svg xmlns="http://www.w3.org/2000/svg" width="256" height="102.624" viewBox="0 0 256 102.624"><defs><style>.a{fill:#7c6c64;}.b{fill:#9c7c6c;}</style></defs><g transform="translate(0 -0.631)"><path class="a" d="M41.6,11.4H32.409V70.935H41.6Z" transform="translate(39.983 13.28)"></path><path class="a" d="M48.894,71.014,34.3,54.332H14.6V43.977h24.52a13.454,13.454,0,0,0,8.465-2.589A9.954,9.954,0,0,0,51.521,32.9c0-7.478-4.087-11.217-12.406-11.217H9.195V70.87H0V11.331H37.656c6.714,0,12.26,1.726,16.346,5.033,4.817,3.739,7.152,9.348,7.152,16.682A20.514,20.514,0,0,1,57.067,45.99,20.244,20.244,0,0,1,46.7,53.037L62.613,71.014Z" transform="translate(0 13.201)"></path><path class="b" d="M80.212,67.178a18.136,18.136,0,0,1-7.006,11.074c-5.546,4.314-11.822,6.615-18.682,8.054-1.606.287-3.211.575-4.817,1.007-.438.144-.876.432-1.168-.144-.292-.719.438-.719.876-.863A49.85,49.85,0,0,0,66.785,76.238c4.233-4.027,6.568-8.773,4.817-14.813-1.168-3.739-3.5-6.616-5.984-9.492-4.087-4.458-8.9-8.341-13.136-12.656-3.065-3.308-5.838-6.615-7.006-11.217-1.022-4.171.292-7.766,2.481-11.217a11.529,11.529,0,0,1,2.773-3.452c-.876,9.923,4.525,16.395,10.509,22.579,4.379,4.458,9.2,8.485,13.136,13.375C78.9,54.379,81.526,60.131,80.212,67.178Z" transform="translate(55.669 15.743)"></path><path class="b" d="M80.685,71.847c-.438.719-1.022,1.438-1.9,2.589a21.689,21.689,0,0,0-.73-7.766c-1.168-4.746-4.087-8.629-7.3-12.224-4.524-5.034-9.779-9.2-14.157-14.238-3.065-3.452-5.838-7.191-6.86-11.793-1.9-7.766.584-14.094,6.568-18.983,5.4-4.458,11.822-6.759,18.682-8.054a22.331,22.331,0,0,1,6.13-.719l-6.568,3.02C69.447,6.124,64.631,9,60.836,13.315A13.473,13.473,0,0,0,59.522,30c3.5,5.609,8.465,9.779,13.136,14.237,3.649,3.452,7.3,6.9,9.779,11.505C85.355,61.349,84.188,66.67,80.685,71.847Z" transform="translate(60.597 0)"></path><path class="a" d="M96.487,70.935H87.438V21.75H66.713V11.4h50.5V21.75H96.487Z" transform="translate(82.304 13.28)"></path><path class="a" d="M141.852,70.95,133.1,54.267H108.283l5.546-10.355h13.865L118.5,26.8,94.855,70.95H83.179L111.64,17.163a15.146,15.146,0,0,1,2.919-3.883c1.605-1.294,2.919-2.013,4.087-2.013a5.9,5.9,0,0,1,4.086,1.87,15.145,15.145,0,0,1,2.919,3.883l27.731,53.93Z" transform="translate(102.618 13.122)"></path></g></svg> 